<svg width="90" height="21" viewBox="0 0 90 21" fill="none" xmlns="http://www.w3.org/2000/svg">
<path d="M24.332 17V4.22H28.976C30.368 4.22 31.532 4.508 32.468 5.084C33.404 5.648 34.106 6.416 34.574 7.388C35.042 8.348 35.276 9.416 35.276 10.592C35.276 11.888 35.018 13.016 34.502 13.976C33.986 14.936 33.254 15.68 32.306 16.208C31.37 16.736 30.26 17 28.976 17H24.332ZM32.774 10.592C32.774 9.764 32.624 9.038 32.324 8.414C32.024 7.778 31.592 7.286 31.028 6.938C30.464 6.578 29.78 6.398 28.976 6.398H26.816V14.822H28.976C29.792 14.822 30.482 14.642 31.046 14.282C31.61 13.91 32.036 13.406 32.324 12.77C32.624 12.122 32.774 11.396 32.774 10.592ZM46.0908 14.822V17H37.2168V4.22H45.9288V6.398H39.7008V9.476H45.0828V11.492H39.7008V14.822H46.0908ZM55.6413 7.568C55.5573 7.484 55.4013 7.37 55.1733 7.226C54.9573 7.082 54.6873 6.944 54.3633 6.812C54.0513 6.68 53.7093 6.566 53.3373 6.47C52.9653 6.362 52.5873 6.308 52.2033 6.308C51.5313 6.308 51.0213 6.434 50.6733 6.686C50.3373 6.938 50.1693 7.292 50.1693 7.748C50.1693 8.096 50.2773 8.372 50.4933 8.576C50.7093 8.78 51.0333 8.954 51.4653 9.098C51.8973 9.242 52.4373 9.398 53.0853 9.566C53.9253 9.77 54.6513 10.022 55.2633 10.322C55.8873 10.61 56.3613 10.994 56.6853 11.474C57.0213 11.942 57.1893 12.566 57.1893 13.346C57.1893 14.03 57.0633 14.618 56.8113 15.11C56.5593 15.59 56.2113 15.98 55.7673 16.28C55.3233 16.58 54.8193 16.802 54.2553 16.946C53.6913 17.078 53.0913 17.144 52.4553 17.144C51.8193 17.144 51.1833 17.078 50.5473 16.946C49.9113 16.814 49.2993 16.628 48.7113 16.388C48.1233 16.136 47.5833 15.836 47.0913 15.488L48.1893 13.346C48.2973 13.454 48.4893 13.598 48.7653 13.778C49.0413 13.946 49.3773 14.12 49.7733 14.3C50.1693 14.468 50.6013 14.612 51.0693 14.732C51.5373 14.852 52.0113 14.912 52.4913 14.912C53.1633 14.912 53.6733 14.798 54.0213 14.57C54.3693 14.342 54.5433 14.018 54.5433 13.598C54.5433 13.214 54.4053 12.914 54.1293 12.698C53.8533 12.482 53.4693 12.296 52.9773 12.14C52.4853 11.972 51.9033 11.792 51.2313 11.6C50.4273 11.372 49.7553 11.12 49.2153 10.844C48.6753 10.556 48.2733 10.196 48.0093 9.764C47.7453 9.332 47.6133 8.792 47.6133 8.144C47.6133 7.268 47.8173 6.536 48.2253 5.948C48.6453 5.348 49.2093 4.898 49.9173 4.598C50.6253 4.286 51.4113 4.13 52.2753 4.13C52.8753 4.13 53.4393 4.196 53.9673 4.328C54.5073 4.46 55.0113 4.634 55.4793 4.85C55.9473 5.066 56.3673 5.3 56.7393 5.552L55.6413 7.568ZM59.0664 17V4.22H61.5504V17H59.0664ZM69.5268 17.09C68.6988 17.09 67.9128 16.922 67.1688 16.586C66.4368 16.25 65.7888 15.788 65.2248 15.2C64.6728 14.6 64.2408 13.904 63.9288 13.112C63.6168 12.32 63.4608 11.462 63.4608 10.538C63.4608 9.662 63.6168 8.84 63.9288 8.072C64.2408 7.292 64.6788 6.608 65.2428 6.02C65.8068 5.432 66.4668 4.97 67.2228 4.634C67.9788 4.298 68.8008 4.13 69.6888 4.13C70.8888 4.13 71.9148 4.388 72.7668 4.904C73.6308 5.408 74.2788 6.08 74.7108 6.92L72.8568 8.288C72.5328 7.652 72.0768 7.166 71.4888 6.83C70.9128 6.494 70.2828 6.326 69.5988 6.326C69.0588 6.326 68.5668 6.44 68.1228 6.668C67.6788 6.896 67.2948 7.208 66.9708 7.604C66.6468 8 66.3948 8.456 66.2148 8.972C66.0468 9.488 65.9628 10.034 65.9628 10.61C65.9628 11.222 66.0528 11.786 66.2328 12.302C66.4248 12.818 66.6888 13.268 67.0248 13.652C67.3728 14.036 67.7748 14.342 68.2308 14.57C68.6868 14.786 69.1908 14.894 69.7428 14.894C70.3908 14.894 71.0088 14.726 71.5968 14.39C72.1968 14.054 72.7548 13.562 73.2708 12.914V15.362C72.2028 16.514 70.9548 17.09 69.5268 17.09ZM73.0908 12.248H70.5168V10.43H75.1428V17H73.0908V12.248ZM79.7437 8.792V17H77.2597V4.22H79.2397L85.8457 12.644V4.238H88.3297V17H86.2597L79.7437 8.792Z" fill="black"/>
<path d="M2.898 4.22H11.07L10.602 6.398H4.896L4.212 9.692H8.928L8.496 11.708H3.78L2.646 17H0.18L2.898 4.22ZM12.9 4.22H19.452C19.932 4.22 20.328 4.346 20.64 4.598C20.964 4.85 21.204 5.174 21.36 5.57C21.528 5.966 21.612 6.386 21.612 6.83C21.612 7.322 21.51 7.808 21.306 8.288C21.114 8.756 20.832 9.182 20.46 9.566C20.1 9.938 19.662 10.232 19.146 10.448C19.674 10.628 20.082 10.94 20.37 11.384C20.67 11.828 20.82 12.362 20.82 12.986C20.82 13.634 20.688 14.21 20.424 14.714C20.172 15.218 19.818 15.638 19.362 15.974C18.906 16.31 18.396 16.568 17.832 16.748C17.268 16.916 16.674 17 16.05 17H10.182L12.9 4.22ZM16.5 14.894C16.728 14.894 16.956 14.846 17.184 14.75C17.412 14.642 17.61 14.492 17.778 14.3C17.958 14.108 18.102 13.892 18.21 13.652C18.318 13.4 18.372 13.136 18.372 12.86C18.372 12.608 18.33 12.386 18.246 12.194C18.162 11.99 18.042 11.828 17.886 11.708C17.73 11.588 17.544 11.528 17.328 11.528H13.8L13.098 14.894H16.5ZM17.274 9.566C17.49 9.566 17.7 9.518 17.904 9.422C18.12 9.326 18.312 9.194 18.48 9.026C18.648 8.846 18.78 8.636 18.876 8.396C18.984 8.144 19.038 7.868 19.038 7.568C19.038 7.196 18.948 6.902 18.768 6.686C18.6 6.458 18.36 6.344 18.048 6.344H14.916L14.232 9.566H17.274Z" fill="black" fill-opacity="0.73"/>
</svg>
